#N canvas 901 270 184 238 10;
#X obj 39 28 inlet~;
#X obj 110 29 inlet~;
#X obj 61 189 outlet~;
#X obj 47 98 intg~;
#X obj 66 66 saw~;
#X obj 85 157 *~ 6.28319;
#X obj 85 133 *~;
#X connect 0 0 4 0;
#X connect 0 0 6 1;
#X connect 1 0 4 1;
#X connect 3 0 6 0;
#X connect 4 0 3 0;
#X connect 5 0 2 0;
#X connect 6 0 5 0;
