#N canvas 353 61 277 328 10;
#X obj 24 27 inlet~;
#X obj 109 30 inlet~;
#X obj 211 30 inlet~;
#X obj 108 94 +~ 1;
#X obj 108 122 *~;
#X obj 111 273 outlet~;
#X obj 155 93 +~ 1;
#X obj 155 121 *~;
#X obj 207 93 +~ 1;
#X obj 207 121 *~;
#X obj 105 205 +~;
#X obj 125 235 +~;
#X obj 107 65 xcos~;
#X obj 155 65 xcos~;
#X obj 207 65 xcos~;
#X obj 96 172 tapdelay~ 3;
#X connect 0 0 15 0;
#X connect 1 0 12 0;
#X connect 1 0 13 0;
#X connect 1 0 14 0;
#X connect 2 0 4 1;
#X connect 2 0 7 1;
#X connect 2 0 9 1;
#X connect 3 0 4 0;
#X connect 4 0 15 1;
#X connect 6 0 7 0;
#X connect 7 0 15 2;
#X connect 8 0 9 0;
#X connect 9 0 15 3;
#X connect 10 0 11 0;
#X connect 11 0 5 0;
#X connect 12 0 3 0;
#X connect 13 0 6 0;
#X connect 14 0 8 0;
#X connect 15 0 10 0;
#X connect 15 1 10 1;
#X connect 15 2 11 1;
