#N canvas 353 61 277 328 10;
#X obj 24 27 inlet~;
#X obj 109 30 inlet~;
#X obj 211 30 inlet~;
#X obj 99 92 +~ 1;
#X obj 106 268 outlet~;
#X obj 155 93 +~ 1;
#X obj 105 205 +~;
#X obj 86 237 +~;
#X obj 99 120 *~;
#X obj 155 121 *~;
#X obj 99 65 xcos~;
#X obj 155 65 xcos~;
#X obj 96 172 tapdelay~ 2;
#X connect 0 0 12 0;
#X connect 0 0 7 0;
#X connect 1 0 10 0;
#X connect 1 0 11 0;
#X connect 2 0 8 1;
#X connect 2 0 9 1;
#X connect 3 0 8 0;
#X connect 5 0 9 0;
#X connect 6 0 7 1;
#X connect 7 0 4 0;
#X connect 8 0 12 1;
#X connect 9 0 12 2;
#X connect 10 0 3 0;
#X connect 11 0 5 0;
#X connect 12 0 6 0;
#X connect 12 1 6 1;
