#N canvas 395 88 281 320 10;
#X obj 42 36 inlet~;
#X obj 125 37 inlet~;
#X obj 207 37 inlet~;
#X obj 125 103 +~ 1;
#X obj 66 262 outlet~;
#X obj 56 221 +~;
#X obj 77 163 delay~;
#X obj 125 131 *~ \$2;
#X obj 125 74 xcos~;
#X connect 0 0 5 0;
#X connect 0 0 6 0;
#X connect 1 0 8 0;
#X connect 2 0 7 1;
#X connect 3 0 7 0;
#X connect 5 0 4 0;
#X connect 6 0 5 1;
#X connect 7 0 6 1;
#X connect 8 0 3 0;
