#N canvas 395 88 281 320 10;
#X obj 42 36 inlet~;
#X obj 125 37 inlet~;
#X obj 207 37 inlet~;
#X obj 125 103 +~ 1;
#X obj 125 131 *~;
#X obj 66 262 outlet~;
#X obj 56 221 +~;
#X obj 125 74 xcos~;
#X obj 77 163 delay~;
#X connect 0 0 6 0;
#X connect 0 0 8 0;
#X connect 1 0 7 0;
#X connect 2 0 4 1;
#X connect 3 0 4 0;
#X connect 4 0 8 1;
#X connect 6 0 5 0;
#X connect 7 0 3 0;
#X connect 8 0 6 1;
