#N canvas 384 611 450 300 10;
#X obj 222 93 lp2~, f 7;
#X obj 149 93 lp2~, f 7;
#X obj 193 28 inlet~;
#X obj 112 26 inlet~;
#X obj 273 29 inlet~;
#X obj 187 142 outlet~;
#X connect 0 0 5 0;
#X connect 1 0 0 0;
#X connect 2 0 1 1;
#X connect 2 0 0 1;
#X connect 3 0 1 0;
#X connect 4 0 1 2;
#X connect 4 0 0 2;
