#N canvas 733 196 450 300 10;
#X obj 189 93 expr if($f1 == 0 \, -1 \, 1);
#X obj 189 171 outlet;
#X obj 126 170 outlet;
#X obj 145 57 notein \$1;
#X obj 126 94 - 60;
#X connect 0 0 1 0;
#X connect 3 0 4 0;
#X connect 3 1 0 0;
#X connect 4 0 2 0;
