#N canvas 586 245 202 224 10;
#X obj 40 27 inlet~;
#X obj 125 28 inlet~;
#X obj 62 190 outlet~;
#X obj 43 105 intg~;
#X obj 52 72 itrain~;
#X obj 78 133 *~;
#X obj 78 156 *~ 6.28319;
#X connect 0 0 4 0;
#X connect 0 0 5 1;
#X connect 1 0 4 1;
#X connect 3 0 5 0;
#X connect 4 0 3 0;
#X connect 5 0 6 0;
#X connect 6 0 2 0;
