#N canvas 0 23 326 393 10;
#X obj 30 33 inlet~;
#X obj 115 36 inlet~;
#X obj 217 36 inlet~;
#X obj 105 98 +~ 1;
#X obj 79 280 outlet~;
#X obj 161 99 +~ 1;
#X obj 219 99 +~ 1;
#X obj 111 211 +~;
#X obj 105 126 *~;
#X obj 161 127 *~;
#X obj 219 127 *~;
#X obj 105 71 xcos~;
#X obj 161 71 xcos~;
#X obj 219 71 xcos~;
#X obj 265 99 +~ 1;
#X obj 265 127 *~;
#X obj 265 71 xcos~;
#X obj 114 181 tapdelay~ 4;
#X obj 92 240 +~;
#X obj 152 281 outlet~;
#X obj 163 210 +~;
#X obj 145 239 +~;
#X obj 153 260 *~ 0.333333;
#X obj 67 260 *~ 0.333333;
#X connect 0 0 17 0;
#X connect 0 0 18 0;
#X connect 0 0 21 0;
#X connect 1 0 11 0;
#X connect 1 0 12 0;
#X connect 1 0 13 0;
#X connect 1 0 16 0;
#X connect 2 0 8 1;
#X connect 2 0 9 1;
#X connect 2 0 10 1;
#X connect 2 0 15 1;
#X connect 3 0 8 0;
#X connect 5 0 9 0;
#X connect 6 0 10 0;
#X connect 7 0 18 1;
#X connect 8 0 17 1;
#X connect 9 0 17 2;
#X connect 10 0 17 3;
#X connect 11 0 3 0;
#X connect 12 0 5 0;
#X connect 13 0 6 0;
#X connect 14 0 15 0;
#X connect 15 0 17 4;
#X connect 16 0 14 0;
#X connect 17 0 7 0;
#X connect 17 1 7 1;
#X connect 17 2 20 0;
#X connect 17 3 20 1;
#X connect 18 0 23 0;
#X connect 20 0 21 1;
#X connect 21 0 22 0;
#X connect 22 0 19 0;
#X connect 23 0 4 0;
