#N canvas 901 270 193 216 10;
#X obj 40 28 inlet~;
#X obj 110 29 inlet~;
#X obj 78 124 smintg~;
#X obj 79 171 outlet~;
#X obj 79 72 smsaw~ \$1;
#X connect 0 0 4 0;
#X connect 1 0 4 1;
#X connect 2 0 3 0;
#X connect 4 0 2 0;
