#N canvas 399 146 861 610 10;
#X obj 124 80 inlet~;
#X obj 209 83 inlet~;
#X obj 311 83 inlet~;
#X obj 262 245 smdelay~;
#X obj 208 147 +~ 1;
#X obj 208 175 *~;
#X obj 207 118 smcos~;
#X obj 229 349 outlet~;
#X obj 209 223 smdelay~;
#X obj 164 203 smdelay~;
#X obj 255 146 +~ 1;
#X obj 255 174 *~;
#X obj 255 118 smcos~;
#X obj 307 146 +~ 1;
#X obj 307 174 *~;
#X obj 307 118 smcos~;
#X obj 184 264 +~;
#X obj 228 300 +~;
#X connect 0 0 3 0;
#X connect 0 0 8 0;
#X connect 0 0 9 0;
#X connect 1 0 6 0;
#X connect 1 0 12 0;
#X connect 1 0 15 0;
#X connect 2 0 5 1;
#X connect 2 0 11 1;
#X connect 2 0 14 1;
#X connect 3 0 17 1;
#X connect 4 0 5 0;
#X connect 5 0 9 1;
#X connect 6 0 4 0;
#X connect 8 0 16 1;
#X connect 9 0 16 0;
#X connect 10 0 11 0;
#X connect 11 0 8 1;
#X connect 12 0 10 0;
#X connect 13 0 14 0;
#X connect 14 0 3 1;
#X connect 15 0 13 0;
#X connect 16 0 17 0;
#X connect 17 0 7 0;
