#N canvas 586 245 219 234 10;
#X obj 40 28 inlet~;
#X obj 110 29 inlet~;
#X obj 77 125 smintg~;
#X obj 78 172 outlet~;
#X obj 59 72 smitrain~ \$1;
#X connect 0 0 4 0;
#X connect 1 0 4 1;
#X connect 2 0 3 0;
#X connect 4 0 2 0;
