#N canvas 618 163 546 335 10;
#X obj 23 22 inlet~;
#X obj 151 23 inlet~;
#X obj 87 23 inlet~;
#X obj 61 128 smdelay~;
#X obj 43 61 sminv~;
#X obj 69 91 *~;
#X obj 90 219 outlet~;
#X obj 106 171 -~;
#X obj 114 65 smbola~ \$1;
#X msg 200 109 0.5;
#X obj 204 47 loadbang;
#X connect 0 0 4 0;
#X connect 0 0 8 0;
#X connect 1 0 8 1;
#X connect 2 0 5 1;
#X connect 3 0 7 1;
#X connect 4 0 5 0;
#X connect 5 0 3 1;
#X connect 7 0 6 0;
#X connect 8 0 3 0;
#X connect 8 0 7 0;
#X connect 9 0 5 1;
#X connect 10 0 9 0;
