#N canvas 0 23 406 338 10;
#X obj 137 31 notein \$1;
#X obj 137 83 / 12;
#X obj 137 113 poly 6 1;
#X obj 137 148 pack 0 0 0;
#X obj 137 184 route 1 2 3 4 5 6;
#X obj 57 257 outlet;
#X obj 109 257 outlet;
#X obj 160 258 outlet;
#X obj 209 258 outlet;
#X obj 258 258 outlet;
#X obj 309 259 outlet;
#X obj 137 57 - 60;
#X connect 0 0 11 0;
#X connect 0 1 2 1;
#X connect 1 0 2 0;
#X connect 2 0 3 0;
#X connect 2 1 3 1;
#X connect 2 2 3 2;
#X connect 3 0 4 0;
#X connect 4 0 5 0;
#X connect 4 1 6 0;
#X connect 4 2 7 0;
#X connect 4 3 8 0;
#X connect 4 4 9 0;
#X connect 4 5 10 0;
#X connect 11 0 1 0;
