#N canvas 635 110 274 259 10;
#X obj 27 25 inlet~;
#X obj 158 25 inlet~;
#X obj 91 24 inlet~;
#X obj 158 109 *~;
#X obj 97 222 outlet~;
#X obj 60 169 -~;
#X msg 195 82 0.5;
#X obj 195 51 loadbang;
#X obj 36 65 inv~;
#X obj 109 139 delay~;
#X obj 89 65 bola~;
#X connect 0 0 8 0;
#X connect 0 0 10 0;
#X connect 1 0 3 1;
#X connect 2 0 10 1;
#X connect 3 0 9 1;
#X connect 5 0 4 0;
#X connect 6 0 3 1;
#X connect 7 0 6 0;
#X connect 8 0 3 0;
#X connect 9 0 5 1;
#X connect 10 0 5 0;
#X connect 10 0 9 0;
