#N canvas 0 23 1366 719 10;
#X obj 567 625 dac~;
#X obj 25 57 vsl 15 128 0.3 20 1 1 empty empty empty 0 -9 0 10 -262144
-1 -1 8900 1;
#X obj 25 225 normf;
#X text 20 28 RATE;
#X text 46 7 LFO;
#X obj 70 57 vsl 15 128 0.001 1.5 0 1 empty empty empty 0 -9 0 10 -262144
-1 -1 5900 1;
#X text 58 28 DELAY TIME;
#X text 286 11 DCO;
#X text 153 32 LFO;
#X obj 200 60 vsl 15 128 0 0.49 0 1 empty empty empty 0 -9 0 10 -262144
-1 -1 0 1;
#X text 196 32 PWM;
#X obj 244 98 vradio 15 1 1 3 empty empty empty 0 -8 0 10 -262144 -1
-1 1;
#X obj 208 248 s dco_pwm_switch;
#X obj 305 114 tgl 15 1 empty empty empty 17 7 0 10 -262144 -1 -1 0
1;
#X obj 339 114 tgl 15 1 empty empty empty 17 7 0 10 -262144 -1 -1 1
1;
#X obj 371 114 tgl 15 1 empty empty empty 17 7 0 10 -262144 -1 -1 1
1;
#X text 298 91 TT_|;
#X text 339 91 /|;
#X text 367 91 TT_|;
#X obj 414 62 vsl 15 128 0 1 0 1 empty empty empty 0 -9 0 10 -262144
-1 -1 12700 1;
#X text 402 38 SUB OSC;
#X obj 253 226 s dco_osc_pwm;
#X obj 299 275 s dco_osc_saw;
#X obj 330 254 s dco_osc_sub;
#X obj 460 63 vsl 15 128 0 1 0 1 empty empty empty 0 -9 0 10 -262144
-1 -1 0 1;
#X text 452 38 NOISE;
#X obj 543 65 vsl 15 128 10 10000 1 1 empty empty empty 0 -9 0 10 -262144
-1 -1 0 1;
#X text 539 10 HPF;
#X text 536 39 FREQ;
#X text 742 9 VCF;
#X obj 633 65 vsl 15 128 -4.75 4.75 0 1 empty empty empty 0 -9 0 10
-262144 -1 -1 9800 1;
#X text 626 41 FREQ;
#X obj 677 66 vsl 15 128 0 1 0 1 empty empty empty 0 -9 0 10 -262144
-1 -1 7500 1;
#X text 673 42 RES;
#X obj 712 114 vradio 15 1 1 2 empty empty empty 0 -8 0 10 -262144
-1 -1 1;
#X text 733 112 |-_;
#X text 733 129 |_-;
#X obj 704 269 s vcf_invert;
#X obj 763 67 vsl 15 128 0 5.33333 0 1 empty empty empty 0 -9 0 10
-262144 -1 -1 9300 1;
#X text 760 41 ENV;
#X obj 808 68 vsl 15 128 0 10 0 1 empty empty empty 0 -9 0 10 -262144
-1 -1 700 1;
#X text 803 41 LFO;
#X obj 854 70 vsl 15 128 0 1 0 1 empty empty empty 0 -9 0 10 -262144
-1 -1 12700 1;
#X text 848 43 KYBD;
#X text 933 11 VCA;
#X text 929 44 LEVEL;
#X obj 938 69 vsl 15 128 0.25 4 1 1 empty empty empty 0 -9 0 10 -262144
-1 -1 6400 1;
#X text 1091 15 ENV;
#X text 1032 48 A;
#X obj 1028 72 vsl 15 128 0.01 3 1 1 empty empty empty 0 -9 0 10 -262144
-1 -1 0 1;
#X obj 1071 73 vsl 15 128 0.002 12 1 1 empty empty empty 0 -9 0 10
-262144 -1 -1 9300 1;
#X obj 1113 73 vsl 15 128 0.04 1 0 1 empty empty empty 0 -9 0 10 -262144
-1 -1 0 1;
#X obj 1153 74 vsl 15 128 0.002 12 1 1 empty empty empty 0 -9 0 10
-262144 -1 -1 0 1;
#X text 1075 49 D;
#X text 1116 48 S;
#X text 1157 49 R;
#X text 1230 20 CHORUS;
#X text 1221 97 OFF;
#X text 1244 98 I;
#X text 1260 98 II;
#X text 265 112 MANUAL;
#X text 265 127 ENV;
#X text 266 96 LFO;
#X obj 1027 242 normt;
#X obj 1068 249 normt;
#X obj 1147 265 normt;
#X obj 11 248 lag~ 0.05;
#X obj 13 293 s~ lfo_rate;
#X obj 121 223 lag~ 0.05;
#X obj 117 247 s~ dco_lfo;
#X obj 193 228 lag~ 0.05;
#X obj 180 273 s~ dco_pwm;
#X obj 392 225 lag~ 0.05;
#X obj 390 290 s~ dco_sub_osc;
#X obj 455 239 lag~ 0.05;
#X obj 439 264 s~ dco_noise;
#X obj 530 257 lag~ 0.05;
#X obj 522 286 s~ hpf_freq;
#X obj 597 277 s~ vcf_freq;
#X obj 606 238 lag~ 0.05;
#X obj 669 238 lag~ 0.05;
#X obj 669 297 s~ vcf_res;
#X obj 743 238 lag~ 0.05;
#X obj 753 293 s~ vcf_env;
#X obj 804 239 lag~ 0.05;
#X obj 809 271 s~ vcf_lfo;
#X obj 852 255 lag~ 0.05;
#X obj 846 312 s~ vcf_kybd;
#X obj 922 269 s~ vca_level;
#X obj 929 243 lag~ 0.05;
#X obj 1000 264 lag~ 0.05;
#X obj 1004 292 s~ env_a;
#X obj 1060 271 lag~ 0.05;
#X obj 1062 294 s~ env_d;
#X obj 1108 249 lag~ 0.05;
#X obj 1094 318 s~ env_s;
#X obj 1150 293 lag~ 0.05;
#X obj 1153 317 s~ env_r;
#X obj 69 268 s lfo_delay_time;
#X obj 188 397 x6notein 1;
#X obj 1306 83 vu 15 120 empty empty -1 -8 0 10 -66577 -1 1 0;
#X obj 728 606 pvu~;
#X obj 833 609 pvu~;
#X msg 1054 368 0.75;
#X msg 1094 369 0.0012;
#X obj 666 443 limit~;
#X obj 564 441 hp4~;
#X obj 570 399 r~ hpf_freq;
#X obj 531 231 normf;
#X floatatom 18 199 5 0 0 0 - - -;
#X floatatom 67 200 5 0 0 0 - - -;
#X obj 157 59 vsl 15 128 0 0.3 0 1 empty empty empty 0 -9 0 10 -262144
-1 -1 0 1;
#X floatatom 147 198 5 0 0 0 - - -;
#X floatatom 191 198 5 0 0 0 - - -;
#X floatatom 407 201 5 0 0 0 - - -;
#X floatatom 453 202 5 0 0 0 - - -;
#X floatatom 535 202 5 0 0 0 - - -;
#X floatatom 622 203 5 0 0 0 - - -;
#X floatatom 668 202 5 0 0 0 - - -;
#X floatatom 754 204 5 0 0 0 - - -;
#X floatatom 799 206 5 0 0 0 - - -;
#X floatatom 848 208 5 0 0 0 - - -;
#X floatatom 932 209 5 0 0 0 - - -;
#X floatatom 1021 211 5 0 0 0 - - -;
#X floatatom 1064 213 5 0 0 0 - - -;
#X floatatom 1107 215 5 0 0 0 - - -;
#X floatatom 1148 213 5 0 0 0 - - -;
#X obj 69 242 * 1000;
#X obj 4 472 throw~ voices;
#X obj 90 472 throw~ voices;
#X obj 175 472 throw~ voices;
#X obj 262 472 throw~ voices;
#X obj 348 472 throw~ voices;
#X obj 433 472 throw~ voices;
#X obj 36 598 catch~ voices;
#X obj 126 598 s~ hpf-in;
#X obj 507 399 r~ hpf-in;
#X obj 545 472 s~ hpf-out;
#X obj 666 402 r~ limit-in;
#X obj 666 473 s~ limit-out;
#X obj 793 367 r~ chorus-in;
#X obj 814 553 s~ chorus-outL;
#X obj 913 552 s~ chorus-outR;
#X obj 500 598 r~ chorus-outL;
#X obj 598 599 r~ chorus-outR;
#X obj 190 598 r~ hpf-out;
#X obj 419 598 s~ chorus-in;
#X obj 260 598 s~ limit-in;
#X obj 337 598 r~ limit-out;
#X obj 697 584 r~ chorus-outL;
#X obj 804 586 r~ chorus-outL;
#X obj 811 631 s meter-inR;
#X obj 702 629 s meter-inL;
#X obj 1223 293 r meter-inL;
#X obj 1285 272 r meter-inR;
#X obj 1032 427 schorus~;
#X obj 1054 394 normf;
#X obj 1094 394 normt;
#X obj 968 368 r~ chorus-in;
#X obj 1208 428 schorus~;
#X obj 1230 395 normf;
#X obj 1270 395 normt;
#X obj 1144 369 r~ chorus-in;
#X msg 1230 369 0.5;
#X obj 1241 120 tgl 15 0 empty empty empty 17 7 0 10 -262144 -1 -1
0 1;
#X obj 1257 120 tgl 15 0 empty empty empty 17 7 0 10 -262144 -1 -1
0 1;
#X obj 1225 120 bng 15 250 50 0 empty empty empty 17 7 0 10 -262144
-1 -1;
#X msg 1193 199 0;
#X obj 1199 246 s chorus_off;
#X obj 1277 247 s chorus2;
#X obj 1213 265 s chorus1;
#X obj 1208 456 spigot~;
#X obj 1265 429 r chorus2;
#X obj 1235 480 spigot~;
#X obj 1201 504 throw~ chorus-L;
#X obj 1239 523 throw~ chorus-R;
#X obj 1039 460 spigot~;
#X obj 1094 423 r chorus1;
#X obj 1060 482 spigot~;
#X obj 1031 505 throw~ chorus-L;
#X obj 1067 528 throw~ chorus-R;
#X obj 876 368 r chorus_off;
#X obj 859 410 spigot~;
#X obj 809 455 throw~ chorus-L;
#X obj 907 455 throw~ chorus-R;
#X obj 810 524 catch~ chorus-L;
#X obj 910 525 catch~ chorus-R;
#X obj 1144 344 loadbang;
#X obj 888 115 vradio 15 1 1 2 empty empty empty 0 -8 0 10 -262144
-1 -1 1;
#X text 909 113 |-_;
#X text 909 130 |-|;
#X obj 897 291 s vca_gate;
#X obj 1223 199 bang;
#X obj 1199 224 expr 1-($i1|$i2);
#X obj 1251 199 loadbang;
#X msg 1270 370 0.0035;
#X msg 96 395 0 0;
#X obj 30 443 juno60voice;
#X obj 105 443 juno60voice;
#X obj 255 444 juno60voice;
#X obj 330 445 juno60voice;
#X obj 179 444 juno60voice;
#X obj 404 445 juno60voice;
#X connect 1 0 2 0;
#X connect 1 0 109 0;
#X connect 2 0 66 0;
#X connect 5 0 110 0;
#X connect 5 0 127 0;
#X connect 9 0 70 0;
#X connect 9 0 113 0;
#X connect 11 0 12 0;
#X connect 13 0 21 0;
#X connect 14 0 22 0;
#X connect 15 0 23 0;
#X connect 19 0 72 0;
#X connect 19 0 114 0;
#X connect 24 0 74 0;
#X connect 24 0 115 0;
#X connect 26 0 108 0;
#X connect 26 0 116 0;
#X connect 30 0 79 0;
#X connect 30 0 117 0;
#X connect 32 0 80 0;
#X connect 32 0 118 0;
#X connect 34 0 37 0;
#X connect 38 0 82 0;
#X connect 38 0 119 0;
#X connect 40 0 84 0;
#X connect 40 0 120 0;
#X connect 42 0 86 0;
#X connect 42 0 121 0;
#X connect 46 0 89 0;
#X connect 46 0 122 0;
#X connect 49 0 63 0;
#X connect 49 0 123 0;
#X connect 50 0 64 0;
#X connect 50 0 124 0;
#X connect 51 0 94 0;
#X connect 51 0 125 0;
#X connect 52 0 65 0;
#X connect 52 0 126 0;
#X connect 63 0 90 0;
#X connect 64 0 92 0;
#X connect 65 0 96 0;
#X connect 66 0 67 0;
#X connect 68 0 69 0;
#X connect 70 0 71 0;
#X connect 72 0 73 0;
#X connect 74 0 75 0;
#X connect 76 0 77 0;
#X connect 79 0 78 0;
#X connect 80 0 81 0;
#X connect 82 0 83 0;
#X connect 84 0 85 0;
#X connect 86 0 87 0;
#X connect 89 0 88 0;
#X connect 90 0 91 0;
#X connect 92 0 93 0;
#X connect 94 0 95 0;
#X connect 96 0 97 0;
#X connect 99 0 197 0;
#X connect 99 1 198 0;
#X connect 99 2 201 0;
#X connect 99 3 199 0;
#X connect 99 4 200 0;
#X connect 99 5 202 0;
#X connect 101 0 152 0;
#X connect 102 0 151 0;
#X connect 103 0 156 0;
#X connect 104 0 157 0;
#X connect 105 0 139 0;
#X connect 106 0 137 0;
#X connect 107 0 106 1;
#X connect 108 0 76 0;
#X connect 111 0 68 0;
#X connect 111 0 112 0;
#X connect 127 0 98 0;
#X connect 134 0 135 0;
#X connect 136 0 106 0;
#X connect 138 0 105 0;
#X connect 140 0 182 0;
#X connect 143 0 0 0;
#X connect 144 0 0 1;
#X connect 145 0 147 0;
#X connect 148 0 146 0;
#X connect 149 0 101 0;
#X connect 150 0 102 0;
#X connect 153 0 100 0;
#X connect 154 0 100 1;
#X connect 155 0 176 0;
#X connect 155 1 178 0;
#X connect 156 0 155 1;
#X connect 157 0 155 2;
#X connect 158 0 155 0;
#X connect 159 0 171 0;
#X connect 159 1 173 0;
#X connect 160 0 159 1;
#X connect 161 0 159 2;
#X connect 162 0 159 0;
#X connect 163 0 160 0;
#X connect 164 0 170 0;
#X connect 164 0 193 0;
#X connect 165 0 169 0;
#X connect 165 0 193 1;
#X connect 165 0 192 0;
#X connect 166 0 167 0;
#X connect 166 0 192 0;
#X connect 167 0 164 0;
#X connect 167 0 165 0;
#X connect 171 1 174 0;
#X connect 172 0 171 1;
#X connect 172 0 173 1;
#X connect 173 1 175 0;
#X connect 176 1 179 0;
#X connect 177 0 176 1;
#X connect 177 0 178 1;
#X connect 178 1 180 0;
#X connect 181 0 182 1;
#X connect 182 1 183 0;
#X connect 182 1 184 0;
#X connect 185 0 141 0;
#X connect 186 0 142 0;
#X connect 187 0 103 0;
#X connect 187 0 104 0;
#X connect 187 0 163 0;
#X connect 187 0 195 0;
#X connect 188 0 191 0;
#X connect 192 0 193 0;
#X connect 193 0 168 0;
#X connect 194 0 193 0;
#X connect 195 0 161 0;
#X connect 196 0 197 0;
#X connect 196 0 198 0;
#X connect 196 0 199 0;
#X connect 196 0 200 0;
#X connect 196 0 201 0;
#X connect 196 0 202 0;
#X connect 197 0 128 0;
#X connect 198 0 129 0;
#X connect 199 0 131 0;
#X connect 200 0 132 0;
#X connect 201 0 130 0;
#X connect 202 0 133 0;
