#N canvas 33 33 1294 694 10;
#X obj 94 39 inlet;
#X text 88 20 keyboard;
#X obj 375 26 r lfo_delay_time;
#X obj 565 27 r dco_pwm_switch;
#X obj 94 66 unpack 0 0;
#X obj 297 49 route 0;
#X obj 338 76 bang;
#X obj 348 98 delay;
#X obj 247 145 *~;
#X msg 347 125 1;
#X msg 314 99 0;
#X obj 67 391 r dco_osc_pwm;
#X obj 104 220 n2f~;
#X obj 284 335 *~ 0.5;
#X obj 284 360 pulse~;
#X obj 163 342 saw~;
#X obj 55 171 *~;
#X obj 192 414 r dco_osc_saw;
#X obj 325 392 r dco_osc_sub;
#X obj 284 444 *~;
#X obj 440 300 gaussian~;
#X obj 465 362 *~;
#X obj 805 81 envg~ 0 0 1 0;
#X obj 595 563 *~;
#X obj 1113 419 *~;
#X obj 972 390 *~;
#X obj 989 533 n2f~;
#X obj 735 642 outlet~;
#X obj 614 160 *~;
#X obj 508 161 *~;
#X obj 27 296 +~ 0.5;
#X obj 625 540 *~;
#X obj 867 190 envgl~ 0 0 1 0;
#X obj 1164 400 *~ 0;
#X obj 78 92 s \$0-note;
#X obj 157 135 r \$0-note;
#X obj 152 111 s \$0-ctl;
#X obj 313 25 r \$0-ctl;
#X obj 701 31 r \$0-ctl;
#X obj 772 139 r \$0-ctl;
#X obj 237 21 r~ lfo_rate;
#X obj 247 199 s~ \$0-lfo;
#X obj 91 135 r~ \$0-lfo;
#X obj 19 133 r~ dco_lfo;
#X obj 1004 358 r~ \$0-lfo;
#X obj 409 104 r~ \$0-lfo;
#X obj 809 109 s~ \$0-envg;
#X obj 896 218 s~ \$0-fenvg;
#X obj 691 461 r~ \$0-envg;
#X obj 595 106 r~ \$0-envg;
#X obj 1116 375 r~ \$0-fenvg;
#X obj 494 27 r~ dco_pwm;
#X obj 760 32 r~ env_a;
#X obj 824 33 r~ env_d;
#X obj 890 34 r~ env_s;
#X obj 952 35 r~ env_r;
#X obj 830 139 r~ env_a;
#X obj 887 140 r~ env_d;
#X obj 1002 139 r~ env_r;
#X obj 510 332 r~ dco_noise;
#X obj 172 288 r~ \$0-dco_f;
#X obj 104 243 s~ \$0-dco_f;
#X obj 325 421 r~ dco_sub_osc;
#X obj 191 557 s~ \$0-dco_out;
#X obj 294 637 r~ \$0-dco_out;
#X obj 515 460 r~ \$0-vca_in;
#X obj 599 461 r~ vca_level;
#X obj 604 594 s~ \$0-vca_out;
#X obj 1071 356 r~ vcf_env;
#X obj 933 358 r~ vcf_lfo;
#X obj 890 561 r~ \$0-vcf_in;
#X obj 1034 529 r~ vcf_res;
#X obj 1018 563 s~ \$0-vcf_out;
#X obj 562 640 s~ \$0-vca_in;
#X obj 645 641 r~ \$0-vca_out;
#X obj 384 637 s~ \$0-vcf_in;
#X obj 469 638 r~ \$0-vcf_out;
#X obj 278 125 lag~ 0.2;
#X obj 700 356 r~ vcf_kybd;
#X obj 380 347 loadbang;
#X msg 348 347 0.5;
#X obj 243 50 loadbang;
#X msg 260 72 0.5;
#X obj 240 100 xtriangle~;
#X obj 307 77 bang;
#X obj 847 358 r~ vcf_freq;
#X obj 105 366 -~;
#X obj 95 342 delay~;
#X obj 48 320 /~;
#X obj 191 533 *~ 0.159155;
#X obj 248 170 *~ 0.405285;
#X obj 430 399 *~ 1.5708;
#X obj 200 362 / 1e+06;
#X obj 200 337 random 1e+06;
#X obj 144 441 *~ 1.73205;
#X obj 426 429 throw~ \$0-dco_osc;
#X obj 245 467 throw~ \$0-dco_osc;
#X obj 128 465 throw~ \$0-dco_osc;
#X obj 31 418 throw~ \$0-dco_osc;
#X obj 164 510 catch~ \$0-dco_osc;
#X obj 425 195 throw~ \$0-dco_pwm;
#X obj 538 195 throw~ \$0-dco_pwm;
#X obj 649 195 throw~ \$0-dco_pwm;
#X obj 27 273 catch~ \$0-dco_pwm;
#X obj 837 425 throw~ \$0-vcf_n;
#X obj 946 423 throw~ \$0-vcf_n;
#X obj 1126 475 throw~ \$0-vcf_n;
#X obj 948 501 catch~ \$0-vcf_n;
#X obj 776 333 r \$0-note;
#X obj 717 428 throw~ \$0-vcf_n;
#X obj 943 139 r~ env_s;
#X obj 1113 335 r vcf_invert;
#X obj 1160 452 +~ 0;
#X obj 776 355 + 1;
#X obj 464 129 spigot~;
#X obj 626 130 spigot~;
#X obj 537 129 spigot~;
#X obj 31 367 spigot~;
#X obj 152 392 spigot~;
#X obj 274 392 spigot~;
#X obj 1148 421 expr (1 - $i1) * 4;
#X obj 1167 356 expr 1 - $i1 * 2;
#X obj 464 84 == 0;
#X obj 576 85 == 1;
#X obj 665 87 == 2;
#X obj 685 512 spigot~;
#X obj 764 463 r vca_gate;
#X obj 739 488 == 0;
#X obj 152 88 != 0;
#X obj 749 522 spigot;
#X obj 794 487 r \$0-ctl;
#X obj 919 524 lag~ 0.1;
#X obj 740 400 *~;
#X obj 771 380 lag~ 0.01;
#X obj 136 170 lag~ 0.01;
#X obj 104 198 +~;
#X obj 663 540 +~;
#X obj 710 544 lage~ 0.01;
#X obj 779 406 -~ 1;
#X obj 977 562 lp4res~;
#X connect 0 0 4 0;
#X connect 2 0 7 1;
#X connect 3 0 122 0;
#X connect 3 0 123 0;
#X connect 3 0 124 0;
#X connect 4 0 34 0;
#X connect 4 1 128 0;
#X connect 5 1 6 0;
#X connect 5 1 84 0;
#X connect 6 0 7 0;
#X connect 7 0 9 0;
#X connect 8 0 90 0;
#X connect 9 0 77 0;
#X connect 10 0 77 0;
#X connect 11 0 117 1;
#X connect 12 0 61 0;
#X connect 13 0 14 0;
#X connect 14 0 119 0;
#X connect 15 0 87 0;
#X connect 15 0 86 0;
#X connect 15 0 118 0;
#X connect 16 0 135 0;
#X connect 17 0 118 1;
#X connect 18 0 119 1;
#X connect 19 0 96 0;
#X connect 20 0 21 0;
#X connect 21 0 91 0;
#X connect 22 0 46 0;
#X connect 23 0 67 0;
#X connect 24 0 112 0;
#X connect 25 0 105 0;
#X connect 26 0 139 1;
#X connect 28 0 102 0;
#X connect 29 0 100 0;
#X connect 30 0 88 0;
#X connect 31 0 23 1;
#X connect 32 0 47 0;
#X connect 33 0 24 1;
#X connect 35 0 134 0;
#X connect 37 0 5 0;
#X connect 38 0 22 0;
#X connect 39 0 32 0;
#X connect 40 0 83 0;
#X connect 42 0 16 1;
#X connect 43 0 16 0;
#X connect 44 0 25 1;
#X connect 45 0 114 0;
#X connect 48 0 125 0;
#X connect 49 0 115 0;
#X connect 50 0 33 0;
#X connect 51 0 29 1;
#X connect 51 0 28 0;
#X connect 51 0 116 0;
#X connect 52 0 22 1;
#X connect 53 0 22 3;
#X connect 54 0 22 4;
#X connect 55 0 22 5;
#X connect 56 0 32 1;
#X connect 57 0 32 3;
#X connect 58 0 32 5;
#X connect 59 0 21 1;
#X connect 60 0 13 0;
#X connect 60 0 15 0;
#X connect 60 0 88 1;
#X connect 62 0 19 1;
#X connect 64 0 75 0;
#X connect 65 0 23 0;
#X connect 66 0 31 0;
#X connect 68 0 24 0;
#X connect 69 0 25 0;
#X connect 70 0 139 0;
#X connect 71 0 139 2;
#X connect 74 0 27 0;
#X connect 76 0 73 0;
#X connect 77 0 8 1;
#X connect 78 0 132 0;
#X connect 79 0 80 0;
#X connect 80 0 14 2;
#X connect 81 0 82 0;
#X connect 82 0 83 2;
#X connect 83 0 8 0;
#X connect 84 0 10 0;
#X connect 85 0 104 0;
#X connect 86 0 117 0;
#X connect 87 0 86 1;
#X connect 88 0 87 1;
#X connect 89 0 63 0;
#X connect 90 0 41 0;
#X connect 91 0 95 0;
#X connect 92 0 15 1;
#X connect 92 0 14 1;
#X connect 93 0 92 0;
#X connect 94 0 97 0;
#X connect 99 0 89 0;
#X connect 103 0 30 0;
#X connect 107 0 131 0;
#X connect 108 0 113 0;
#X connect 110 0 32 4;
#X connect 111 0 120 0;
#X connect 111 0 121 0;
#X connect 112 0 106 0;
#X connect 113 0 133 0;
#X connect 114 1 29 0;
#X connect 115 1 28 1;
#X connect 116 1 101 0;
#X connect 117 1 98 0;
#X connect 118 1 94 0;
#X connect 119 1 19 0;
#X connect 120 0 112 1;
#X connect 121 0 33 1;
#X connect 122 0 114 1;
#X connect 123 0 116 1;
#X connect 124 0 115 1;
#X connect 125 1 136 0;
#X connect 126 0 127 0;
#X connect 126 0 129 1;
#X connect 127 0 125 1;
#X connect 128 0 36 0;
#X connect 129 0 137 0;
#X connect 130 0 129 0;
#X connect 131 0 26 0;
#X connect 132 0 138 0;
#X connect 133 0 132 1;
#X connect 134 0 135 1;
#X connect 135 0 12 0;
#X connect 136 0 31 1;
#X connect 137 0 136 1;
#X connect 138 0 109 0;
#X connect 139 0 72 0;
